<?xml version="1.0" encoding="utf-8"?>
<!-- Generator: Adobe Illustrator 23.0.1, SVG Export Plug-In . SVG Version: 6.00 Build 0)  -->
<svg version="1.1" xmlns="http://www.w3.org/2000/svg" xmlns:xlink="http://www.w3.org/1999/xlink" x="0px" y="0px"
	 viewBox="0 0 800 600" style="enable-background:new 0 0 800 600;" xml:space="preserve">
<g id="Capa_1">
</g>
<g id="LuzLed">
	<image style="overflow:visible;" width="176" height="175" xlink:href="Led.png"  transform="matrix(1 0 0 1 320 115)">
	</image>
</g>
<g id="Aluminio">
	
		<image style="overflow:visible;" width="750" height="377" xlink:href="../Animaciones/aluminio3.gif"  transform="matrix(1 0 0 1 -23 96)">
	</image>
</g>
<g id="ParteAluminio1">
	<image style="overflow:visible;" width="178" height="189" xlink:href="parte-aluminio.png"  transform="matrix(1 0 0 1 409 209)">
	</image>
</g>
<g id="ParteAluminio2">
	
		<image style="overflow:visible;" width="178" height="189" xlink:href="parte-aluminio.png"  transform="matrix(-1 0 0 1 408 215)">
	</image>
</g>
<g id="Pila1">
	<image style="overflow:visible;" width="320" height="77" xlink:href="pilas-cinta-1.png"  transform="matrix(1 0 0 1 242 337)">
	</image>
</g>
<g id="Pila2">
	<image style="overflow:visible;" width="320" height="77" xlink:href="pilas-cinta-2.png"  transform="matrix(1 0 0 1 242 337)">
	</image>
</g>
<g id="PilaCinta1">
	<image style="overflow:visible;" width="320" height="77" xlink:href="pilas-cinta-1a.png"  transform="matrix(1 0 0 1 242 337)">
	</image>
</g>
<g id="PilaCinta2">
	<image style="overflow:visible;" width="320" height="77" xlink:href="pilas-cinta-1b.png"  transform="matrix(1 0 0 1 242 337)">
	</image>
</g>
</svg>
