<?xml version="1.0" encoding="utf-8"?>
<!-- Generator: Adobe Illustrator 23.0.1, SVG Export Plug-In . SVG Version: 6.00 Build 0)  -->
<svg version="1.1" xmlns="http://www.w3.org/2000/svg" xmlns:xlink="http://www.w3.org/1999/xlink" x="0px" y="0px"
	 viewBox="0 0 800 600" style="enable-background:new 0 0 800 600;" xml:space="preserve">
<style type="text/css">
	.st0{display:none;}
</style>
<g id="CapaInicial" class="st0">
</g>
<g id="Cable1">
	
		<image style="overflow:visible;" width="120" height="137" xlink:href="37.png"  transform="matrix(-0.1167 -1.2219 1.2219 -0.1167 181.2849 331.5068)">
	</image>
</g>
<g id="Portalampara2">
	
		<image style="overflow:visible;" width="246" height="171" xlink:href="portalampara.png"  transform="matrix(0.7154 0 0 0.6608 503 177)">
	</image>
</g>
<g id="Portalampara1">
	
		<image style="overflow:visible;" width="246" height="171" xlink:href="portalampara.png"  transform="matrix(0.6891 0 0 0.6891 403 126)">
	</image>
</g>
<g id="Cable2">
	
		<image style="overflow:visible;" width="85" height="236" xlink:href="cable4.png"  transform="matrix(0.4477 0.8942 0.5948 -0.2978 303.0479 215.162)">
	</image>
</g>
<g id="Cable3">
	
		<image style="overflow:visible;" width="360" height="135" xlink:href="cable3.png"  transform="matrix(0.817 -0.3937 0.4341 0.9009 313.4775 316.2836)">
	</image>
</g>
<g id="Portapila">
	
		<image style="overflow:visible;" width="134" height="114" xlink:href="portapilas.png"  transform="matrix(1.4403 0 0 1.4403 153 309)">
	</image>
</g>
<g id="Pilas">
	
		<image style="overflow:visible;" width="144" height="112" xlink:href="PilasJuntas-c2.png"  transform="matrix(1.3298 0 0 1.3298 158.794 312.8565)">
	</image>
</g>
<g id="Interruptor1">
	
		<image style="overflow:visible;" width="38" height="66" xlink:href="iterruptor1.png"  transform="matrix(1.6787 0 0 1.6787 314.6841 97)">
	</image>
</g>
<g id="Cable4">
	<image style="overflow:visible;" width="107" height="120" xlink:href="cable2.png"  transform="matrix(0.785 0 0 0.7 509 161)">
	</image>
</g>
</svg>
