<?xml version="1.0" encoding="utf-8"?>
<!-- Generator: Adobe Illustrator 23.0.1, SVG Export Plug-In . SVG Version: 6.00 Build 0)  -->
<svg version="1.1" xmlns="http://www.w3.org/2000/svg" xmlns:xlink="http://www.w3.org/1999/xlink" x="0px" y="0px"
	 viewBox="0 0 800 600" style="enable-background:new 0 0 800 600;" xml:space="preserve">
<g id="PilaGorde">
	
		<image style="overflow:visible;" width="54" height="94" xlink:href="pila-cuadrada.png"  transform="matrix(1.3176 0 0 1.3176 298.8837 317.8929)">
	</image>
</g>
<g id="Interruptor">
	
		<image style="overflow:visible;" width="38" height="66" xlink:href="iterruptor1.png"  transform="matrix(1.6742 0 0 1.6742 290.8571 113.3609)">
	</image>
</g>
<g id="Lampara1">
	
		<image style="overflow:visible;" width="246" height="171" xlink:href="portalampara.png"  transform="matrix(0.6692 0 0 0.6692 440.5476 147.9643)">
	</image>
</g>
<g id="CajonAgua">
	
		<image style="overflow:visible;" width="500" height="300" xlink:href="../Animaciones/agua.gif"  transform="matrix(0.4792 0 0 0.4792 391.1429 308.4286)">
	</image>
</g>
<g id="Cable1">
	
		<image style="overflow:visible;" width="120" height="137" xlink:href="37.png"  transform="matrix(-0.3269 -1.1712 1.1312 -0.3157 187.5065 365.6403)">
	</image>
</g>
<g id="Cable2">
	
		<image style="overflow:visible;" width="360" height="135" xlink:href="cable3a.png"  transform="matrix(0.5475 5.114905e-02 7.386942e-02 -0.7907 308.4113 247.7515)">
	</image>
</g>
<g id="Cable3">
	
		<image style="overflow:visible;" width="85" height="236" xlink:href="cable4.png"  transform="matrix(0.8732 0.1563 -0.1563 0.8732 556.8441 164.8519)">
	</image>
</g>
<g id="Cable4">
	
		<image style="overflow:visible;" width="172" height="177" xlink:href="cable3.png"  transform="matrix(1.0188 -8.564349e-02 6.009902e-02 0.7149 324.3603 292.5089)">
	</image>
</g>
</svg>
