<?xml version="1.0" encoding="UTF-8" standalone="no"?>
<svg xmlns:xlink="http://www.w3.org/1999/xlink" height="261.4px" width="440.5px" xmlns="http://www.w3.org/2000/svg">
  <g transform="matrix(1.0, 0.0, 0.0, 1.0, 131.9, 11.6)">
    <path d="M3.45 76.65 Q10.75 86.65 11.9 98.9 L-45.0 246.3 -45.9 248.8 -117.4 220.4 Q-126.8 213.3 -130.9 199.5 L-129.8 196.75 Q-103.9 133.05 -71.3 71.85 L-63.15 56.8 Q-51.25 57.85 -40.35 60.15 -18.1 64.8 2.05 76.25 1.7 75.6 3.45 76.65 M-114.7 202.5 L-57.65 79.5 -63.15 56.8 -57.65 79.5 -5.85 92.0 2.05 76.25 -5.85 92.0 -57.65 79.5 -114.7 202.5 -72.8 218.2 -55.55 230.75 Q-45.05 226.6 -58.9 210.8 L-43.35 176.25 -32.05 183.7 -11.45 127.5 -16.0 115.55 -5.85 92.0 -16.0 115.55 -11.45 127.5 -32.05 183.7 -43.35 176.25 -58.9 210.8 Q-45.05 226.6 -55.55 230.75 L-72.8 218.2 -114.7 202.5 -129.8 196.75 -114.7 202.5 M-110.85 216.95 Q-110.35 215.1 -111.15 212.95 -111.95 210.9 -113.55 209.85 -115.0 208.75 -116.45 209.3 -117.8 209.8 -118.2 211.6 -118.7 213.45 -117.9 215.5 -117.1 217.65 -115.5 218.7 -114.0 219.8 -112.65 219.3 -111.2 218.75 -110.85 216.95 -111.2 218.75 -112.65 219.3 -114.0 219.8 -115.5 218.7 -117.1 217.65 -117.9 215.5 -118.7 213.45 -118.2 211.6 -117.8 209.8 -116.45 209.3 -115.0 208.75 -113.55 209.85 -111.95 210.9 -111.15 212.95 -110.35 215.1 -110.85 216.95 M-78.1 229.4 Q-77.6 227.7 -78.35 225.75 -79.1 223.8 -80.6 222.75 -82.1 221.75 -83.5 222.25 -84.9 222.8 -85.4 224.6 -85.85 226.35 -85.1 228.3 -84.35 230.25 -82.9 231.25 -81.3 232.3 -79.9 231.75 -78.5 231.25 -78.1 229.4 -78.5 231.25 -79.9 231.75 -81.3 232.3 -82.9 231.25 -84.35 230.25 -85.1 228.3 -85.85 226.35 -85.4 224.6 -84.9 222.8 -83.5 222.25 -82.1 221.75 -80.6 222.75 -79.1 223.8 -78.35 225.75 -77.6 227.7 -78.1 229.4 M-45.0 246.3 Q-68.15 223.5 -81.0 218.8 L-130.9 199.5 -81.0 218.8 Q-68.15 223.5 -45.0 246.3" fill="#000000" fill-rule="evenodd" stroke="none"/>
    <path d="M3.45 76.65 Q10.75 86.65 11.9 98.9 L-45.0 246.3 -45.9 248.8 -117.4 220.4 Q-126.8 213.3 -130.9 199.5 L-129.8 196.75 Q-103.9 133.05 -71.3 71.85 L-63.15 56.8 Q-51.25 57.85 -40.35 60.15 -18.1 64.8 2.05 76.25 1.7 75.6 3.45 76.65 M-63.15 56.8 L-57.65 79.5 -5.85 92.0 2.05 76.25 M-5.85 92.0 L-16.0 115.55 -11.45 127.5 -32.05 183.7 -43.35 176.25 -58.9 210.8 Q-45.05 226.6 -55.55 230.75 L-72.8 218.2 -114.7 202.5 -129.8 196.75 M-130.9 199.5 L-81.0 218.8 Q-68.15 223.5 -45.0 246.3 M-78.1 229.4 Q-78.5 231.25 -79.9 231.75 -81.3 232.3 -82.9 231.25 -84.35 230.25 -85.1 228.3 -85.85 226.35 -85.4 224.6 -84.9 222.8 -83.5 222.25 -82.1 221.75 -80.6 222.75 -79.1 223.8 -78.35 225.75 -77.6 227.7 -78.1 229.4 M-110.85 216.95 Q-111.2 218.75 -112.65 219.3 -114.0 219.8 -115.5 218.7 -117.1 217.65 -117.9 215.5 -118.7 213.45 -118.2 211.6 -117.8 209.8 -116.45 209.3 -115.0 208.75 -113.55 209.85 -111.95 210.9 -111.15 212.95 -110.35 215.1 -110.85 216.95 M-57.65 79.5 L-114.7 202.5" fill="none" stroke="#1b1b1b" stroke-linecap="round" stroke-linejoin="round" stroke-width="2.0"/>
    <path d="M-41.0 64.75 Q-40.05 67.2 -41.25 69.65 -42.45 72.2 -45.1 73.15 -47.7 74.15 -50.2 73.05 -52.75 72.05 -53.7 69.6 -54.65 67.1 -53.4 64.6 -52.25 62.1 -49.65 61.1 -47.0 60.15 -44.45 61.2 -41.95 62.25 -41.0 64.75" fill="url(#gradient0)" fill-rule="evenodd" stroke="none"/>
    <path d="M-75.5 212.45 Q-74.45 213.6 -75.0 214.25 -75.6 214.95 -77.4 214.7 -79.25 214.5 -81.2 213.5 -83.2 212.55 -84.25 211.4 -85.2 210.2 -84.65 209.55 -84.05 208.9 -82.25 209.1 -80.5 209.35 -78.5 210.35 -76.5 211.3 -75.5 212.45" fill="url(#gradient1)" fill-rule="evenodd" stroke="none"/>
    <path d="M-41.0 64.75 Q-40.05 67.2 -41.25 69.65 -42.45 72.2 -45.1 73.15 -47.7 74.15 -50.2 73.05 -52.75 72.05 -53.7 69.6 -54.65 67.1 -53.4 64.6 -52.25 62.1 -49.65 61.1 -47.0 60.15 -44.45 61.2 -41.95 62.25 -41.0 64.75 M-75.5 212.45 Q-74.45 213.6 -75.0 214.25 -75.6 214.95 -77.4 214.7 -79.25 214.5 -81.2 213.5 -83.2 212.55 -84.25 211.4 -85.2 210.2 -84.65 209.55 -84.05 208.9 -82.25 209.1 -80.5 209.35 -78.5 210.35 -76.5 211.3 -75.5 212.45" fill="none" stroke="#999999" stroke-linecap="round" stroke-linejoin="round" stroke-width="2.0"/>
    <path d="M-19.15 67.75 Q-17.85 69.85 -15.0 71.55 L-14.6 71.7 -14.25 71.9 Q-12.5 70.85 -9.5 73.25 L-8.7 74.65 Q-8.65 75.1 -8.95 75.25 L-10.2 75.35 Q-14.05 74.45 -14.25 71.9 M-15.0 71.55 Q-17.7 70.25 -20.3 70.25 -22.3 71.8 -21.35 73.0 -19.75 75.5 -17.05 77.15 L-15.35 78.0 Q-13.25 78.35 -10.6 79.85 L-10.35 80.0 Q-9.5 81.15 -11.1 82.1 L-11.45 81.95 Q-13.95 80.8 -15.35 78.0 L-20.6 77.25 Q-25.85 76.5 -21.85 80.8 -17.5 84.55 -13.8 85.05 L-12.9 85.2 -12.65 85.25 Q-10.55 85.5 -12.1 83.9 L-12.75 83.3 Q-15.4 81.1 -18.25 80.35 L-20.5 79.8" fill="none" stroke="#999999" stroke-linecap="round" stroke-linejoin="round" stroke-width="2.0"/>
    <path d="M-112.2 185.9 Q-110.45 184.9 -107.4 187.3 -106.75 188.15 -106.7 188.75 L-106.85 189.25 -108.2 189.35 Q-111.95 188.45 -112.2 185.9 L-112.6 185.7 -112.95 185.55 Q-115.7 184.25 -118.25 184.2 -120.25 185.75 -119.25 187.0 -117.7 189.55 -114.95 191.1 L-113.25 192.05 Q-111.2 192.3 -108.55 193.8 L-108.3 194.0 Q-107.5 195.1 -109.05 196.1 L-109.35 196.0 Q-111.9 194.85 -113.25 192.05 L-118.5 191.35 Q-123.85 190.45 -119.8 194.75 -115.45 198.6 -111.8 199.05 L-110.85 199.25 -110.55 199.3 Q-108.5 199.45 -110.05 197.9 L-110.7 197.35 Q-113.4 195.1 -116.2 194.35 L-118.4 193.85 M-117.05 181.8 Q-115.85 183.85 -112.95 185.5 L-112.6 185.7" fill="none" stroke="#999999" stroke-linecap="round" stroke-linejoin="round" stroke-width="2.0"/>
    <path d="M-79.8 94.45 L-65.15 61.8 Q-60.4 60.75 -55.8 61.65 -53.8 62.0 -51.8 62.8 -49.05 63.9 -46.25 65.7 L-43.35 67.85 Q-39.65 70.75 -36.1 74.95 L-52.05 108.55 Q-61.25 98.6 -69.3 95.55 -74.8 93.45 -79.8 94.45 M-52.95 82.0 L-49.5 84.8 -50.75 88.25 -49.5 84.8 -52.95 82.0 M-45.35 88.15 L-49.5 84.8 -48.4 81.45 -49.5 84.8 -45.35 88.15" fill="url(#gradient2)" fill-rule="evenodd" stroke="none"/>
    <path d="M-51.8 62.8 L-49.7 61.1 Q-46.6 60.4 -45.55 63.0 L-46.25 65.7 Q-49.05 63.9 -51.8 62.8" fill="url(#gradient3)" fill-rule="evenodd" stroke="none"/>
    <path d="M-52.05 108.55 L-96.05 201.3 -102.15 200.75 Q-108.4 199.65 -115.6 195.9 L-118.7 194.2 Q-120.7 192.15 -122.4 189.45 L-79.8 94.45 Q-74.8 93.45 -69.3 95.55 -61.25 98.6 -52.05 108.55 M-109.2 195.9 Q-107.65 195.3 -110.0 195.9 L-111.15 196.05 -109.2 195.9" fill="url(#gradient4)" fill-rule="evenodd" stroke="none"/>
    <path d="M-5.55 89.55 L-43.7 172.05 Q-52.6 158.75 -72.45 156.45 L-34.55 75.45 Q-24.1 75.8 -17.1 78.65 -13.95 79.95 -11.55 81.85 -8.05 85.0 -5.55 89.55" fill="url(#gradient5)" fill-rule="evenodd" stroke="none"/>
    <path d="M-11.55 81.85 Q-7.55 84.9 -5.55 89.55 -8.05 85.0 -11.55 81.85" fill="url(#gradient6)" fill-rule="evenodd" stroke="none"/>
    <path d="M-118.7 194.2 L-123.3 191.4 -122.4 189.45 Q-120.7 192.15 -118.7 194.2" fill="url(#gradient7)" fill-rule="evenodd" stroke="none"/>
    <path d="M-43.7 172.05 L-63.25 214.5 Q-68.2 206.95 -76.15 203.45 -83.35 200.3 -93.0 200.35 L-72.45 156.45 Q-52.6 158.75 -43.7 172.05 M-77.8 182.05 L-76.55 179.05 -73.75 180.15 -76.55 179.05 -77.8 182.05 M-74.9 175.05 L-76.55 179.05 -80.0 177.7 -76.55 179.05 -74.9 175.05" fill="url(#gradient8)" fill-rule="evenodd" stroke="none"/>
    <path d="M-63.25 214.5 Q-70.35 212.25 -77.1 209.2 L-78.6 208.5 -81.45 207.05 -82.1 206.75 -83.7 205.9 Q-88.5 203.3 -93.0 200.35 -83.35 200.3 -76.15 203.45 -68.2 206.95 -63.25 214.5 M-76.0 206.3 L-77.1 209.2 -76.0 206.3 M-80.55 204.45 L-81.45 207.05 -80.55 204.45" fill="url(#gradient9)" fill-rule="evenodd" stroke="none"/>
    <path d="M-77.1 209.2 L-78.45 213.05 Q-80.65 213.25 -82.95 211.3 L-81.45 207.05 -78.6 208.5 -77.1 209.2" fill="url(#gradient10)" fill-rule="evenodd" stroke="none"/>
    <path d="M-79.8 94.45 L-65.15 61.8 Q-60.4 60.75 -55.8 61.65 -53.8 62.0 -51.8 62.8 L-49.7 61.1 Q-46.6 60.4 -45.55 63.0 L-46.25 65.7 -43.35 67.85 Q-39.65 70.75 -36.1 74.95 L-52.05 108.55 -96.05 201.3 -102.15 200.75 -109.05 199.45 Q-114.6 198.2 -118.7 194.2 L-123.3 191.4 -122.4 189.45 -79.8 94.45 Q-74.8 93.45 -69.3 95.55 -61.25 98.6 -52.05 108.55 M-51.8 62.8 Q-49.05 63.9 -46.25 65.7 M-48.4 81.45 L-49.5 84.8 -45.35 88.15 M-50.75 88.25 L-49.5 84.8 -52.95 82.0 M-34.55 75.45 Q-20.05 74.35 -11.55 81.85 -7.55 84.9 -5.55 89.55 L-43.7 172.05 -63.25 214.5 Q-70.35 212.25 -77.1 209.2 L-78.45 213.05 Q-80.65 213.25 -82.95 211.3 L-81.45 207.05 -82.1 206.75 -83.7 205.9 Q-88.5 203.3 -93.0 200.35 L-72.45 156.45 -34.55 75.45 Q-24.1 75.8 -17.1 78.65 -13.95 79.95 -11.55 81.85 -8.05 85.0 -5.55 89.55 M-102.15 200.75 Q-108.4 199.65 -115.6 195.9 L-118.7 194.2 Q-120.7 192.15 -122.4 189.45 M-80.0 177.7 L-76.55 179.05 -74.9 175.05 M-73.75 180.15 L-76.55 179.05 -77.8 182.05 M-72.45 156.45 Q-52.6 158.75 -43.7 172.05 M-77.1 209.2 L-76.0 206.3 M-93.0 200.35 Q-83.35 200.3 -76.15 203.45 -68.2 206.95 -63.25 214.5 M-81.45 207.05 L-80.55 204.45" fill="none" stroke="#000000" stroke-linecap="round" stroke-linejoin="round" stroke-width="1.0"/>
    <path d="M147.3 34.0 Q140.55 34.0 135.75 29.2 130.95 24.4 130.95 17.65 130.95 10.9 135.75 6.1 140.55 1.3 147.3 1.3 154.05 1.3 158.85 6.1 163.65 10.9 163.65 17.65 163.65 24.4 158.85 29.2 154.05 34.0 147.3 34.0" fill="#ffcc00" fill-opacity="0.49803922" fill-rule="evenodd" stroke="none"/>
    <path d="M147.3 34.0 Q140.55 34.0 135.75 29.2 130.95 24.4 130.95 17.65 130.95 10.9 135.75 6.1 140.55 1.3 147.3 1.3 154.05 1.3 158.85 6.1 163.65 10.9 163.65 17.65 163.65 24.4 158.85 29.2 154.05 34.0 147.3 34.0 Z" fill="none" stroke="#999999" stroke-linecap="round" stroke-linejoin="round" stroke-width="1.0"/>
    <path d="M147.25 -11.6 Q158.95 -11.6 167.3 -3.3 175.6 5.05 175.6 16.75 175.6 28.45 167.3 36.75 158.95 45.1 147.25 45.1 135.55 45.1 127.2 36.75 118.9 28.45 118.9 16.75 118.9 5.05 127.2 -3.3 135.55 -11.6 147.25 -11.6" fill="url(#gradient11)" fill-rule="evenodd" stroke="none"/>
    <path d="M268.75 67.7 Q273.55 62.9 280.3 62.9 287.05 62.9 291.85 67.7 296.65 72.5 296.65 79.25 296.65 86.0 291.85 90.8 287.05 95.6 280.3 95.6 273.55 95.6 268.75 90.8 263.95 86.0 263.95 79.25 263.95 72.5 268.75 67.7" fill="#ffcc00" fill-opacity="0.49803922" fill-rule="evenodd" stroke="none"/>
    <path d="M268.75 67.7 Q273.55 62.9 280.3 62.9 287.05 62.9 291.85 67.7 296.65 72.5 296.65 79.25 296.65 86.0 291.85 90.8 287.05 95.6 280.3 95.6 273.55 95.6 268.75 90.8 263.95 86.0 263.95 79.25 263.95 72.5 268.75 67.7 Z" fill="none" stroke="#999999" stroke-linecap="round" stroke-linejoin="round" stroke-width="1.0"/>
    <path d="M251.9 78.35 Q251.9 66.65 260.2 58.3 268.55 50.0 280.25 50.0 291.95 50.0 300.3 58.3 308.6 66.65 308.6 78.35 308.6 90.05 300.3 98.35 291.95 106.7 280.25 106.7 268.55 106.7 260.2 98.35 251.9 90.05 251.9 78.35" fill="url(#gradient12)" fill-rule="evenodd" stroke="none"/>
  </g>
  <defs>
    <linearGradient gradientTransform="matrix(0.0078, -0.0029, 0.0028, 0.0073, -47.4, 67.2)" gradientUnits="userSpaceOnUse" id="gradient0" spreadMethod="pad" x1="-819.2" x2="819.2">
      <stop offset="0.0" stop-color="#0d130c"/>
      <stop offset="0.3254901960784314" stop-color="#787d7b"/>
      <stop offset="1.0" stop-color="#758481"/>
    </linearGradient>
    <linearGradient gradientTransform="matrix(0.0017, -0.0019, 0.0059, 0.0029, -79.85, 211.95)" gradientUnits="userSpaceOnUse" id="gradient1" spreadMethod="pad" x1="-819.2" x2="819.2">
      <stop offset="0.0" stop-color="#0d130c"/>
      <stop offset="0.3254901960784314" stop-color="#787d7b"/>
      <stop offset="1.0" stop-color="#758481"/>
    </linearGradient>
    <linearGradient gradientTransform="matrix(0.0169, 0.0071, -0.0133, 0.0273, -56.25, 83.6)" gradientUnits="userSpaceOnUse" id="gradient2" spreadMethod="pad" x1="-819.2" x2="819.2">
      <stop offset="0.0" stop-color="#ac7053"/>
      <stop offset="0.3254901960784314" stop-color="#f1e3c1"/>
      <stop offset="1.0" stop-color="#95582f"/>
    </linearGradient>
    <linearGradient gradientTransform="matrix(0.0033, -0.0013, 0.0012, 0.0032, -48.45, 63.6)" gradientUnits="userSpaceOnUse" id="gradient3" spreadMethod="pad" x1="-819.2" x2="819.2">
      <stop offset="0.0" stop-color="#0d130c"/>
      <stop offset="0.3254901960784314" stop-color="#787d7b"/>
      <stop offset="1.0" stop-color="#758481"/>
    </linearGradient>
    <linearGradient gradientTransform="matrix(-0.0247, -0.0103, 0.0258, -0.0532, -115.3, 137.5)" gradientUnits="userSpaceOnUse" id="gradient4" spreadMethod="pad" x1="-819.2" x2="819.2">
      <stop offset="0.0" stop-color="#0d130c"/>
      <stop offset="0.3254901960784314" stop-color="#787d7b"/>
      <stop offset="1.0" stop-color="#758481"/>
    </linearGradient>
    <linearGradient gradientTransform="matrix(0.0401, 0.0167, -0.0237, 0.0492, -2.35, 140.45)" gradientUnits="userSpaceOnUse" id="gradient5" spreadMethod="pad" x1="-819.2" x2="819.2">
      <stop offset="0.0" stop-color="#0d130c"/>
      <stop offset="0.3254901960784314" stop-color="#787d7b"/>
      <stop offset="1.0" stop-color="#758481"/>
    </linearGradient>
    <linearGradient gradientTransform="matrix(0.0126, -0.0048, 0.0051, 0.0134, -20.1, 82.45)" gradientUnits="userSpaceOnUse" id="gradient6" spreadMethod="pad" x1="-819.2" x2="819.2">
      <stop offset="0.0" stop-color="#0d130c"/>
      <stop offset="0.3254901960784314" stop-color="#787d7b"/>
      <stop offset="1.0" stop-color="#758481"/>
    </linearGradient>
    <linearGradient gradientTransform="matrix(0.0125, -0.0047, 0.0048, 0.0126, -110.3, 194.8)" gradientUnits="userSpaceOnUse" id="gradient7" spreadMethod="pad" x1="-819.2" x2="819.2">
      <stop offset="0.0" stop-color="#0d130c"/>
      <stop offset="0.3254901960784314" stop-color="#787d7b"/>
      <stop offset="1.0" stop-color="#758481"/>
    </linearGradient>
    <linearGradient gradientTransform="matrix(0.0155, 0.0065, -0.0158, 0.0325, -68.55, 185.7)" gradientUnits="userSpaceOnUse" id="gradient8" spreadMethod="pad" x1="-819.2" x2="819.2">
      <stop offset="0.0" stop-color="#ac7053"/>
      <stop offset="0.3254901960784314" stop-color="#f1e3c1"/>
      <stop offset="1.0" stop-color="#95582f"/>
    </linearGradient>
    <linearGradient gradientTransform="matrix(0.013, -0.0049, 0.0051, 0.0136, -78.15, 207.4)" gradientUnits="userSpaceOnUse" id="gradient9" spreadMethod="pad" x1="-819.2" x2="819.2">
      <stop offset="0.0" stop-color="#0d130c"/>
      <stop offset="0.3254901960784314" stop-color="#787d7b"/>
      <stop offset="1.0" stop-color="#758481"/>
    </linearGradient>
    <linearGradient gradientTransform="matrix(0.0036, -0.0014, 0.0014, 0.0038, -80.1, 210.1)" gradientUnits="userSpaceOnUse" id="gradient10" spreadMethod="pad" x1="-819.2" x2="819.2">
      <stop offset="0.0" stop-color="#0d130c"/>
      <stop offset="0.3254901960784314" stop-color="#787d7b"/>
      <stop offset="1.0" stop-color="#758481"/>
    </linearGradient>
    <radialGradient cx="0" cy="0" gradientTransform="matrix(0.0354, 0.0, 0.0, 0.0354, 147.25, 16.75)" gradientUnits="userSpaceOnUse" id="gradient11" r="819.2" spreadMethod="pad">
      <stop offset="0.00392156862745098" stop-color="#ffcc00"/>
      <stop offset="0.23137254901960785" stop-color="#ffd221" stop-opacity="0.87058824"/>
      <stop offset="0.38823529411764707" stop-color="#ffd73c" stop-opacity="0.7294118"/>
      <stop offset="0.5333333333333333" stop-color="#ffdd5b" stop-opacity="0.6431373"/>
      <stop offset="1.0" stop-color="#ffffff" stop-opacity="0.0"/>
    </radialGradient>
    <radialGradient cx="0" cy="0" gradientTransform="matrix(0.0354, 0.0, 0.0, 0.0354, 280.25, 78.35)" gradientUnits="userSpaceOnUse" id="gradient12" r="819.2" spreadMethod="pad">
      <stop offset="0.00392156862745098" stop-color="#ffcc00"/>
      <stop offset="0.23137254901960785" stop-color="#ffd221" stop-opacity="0.87058824"/>
      <stop offset="0.38823529411764707" stop-color="#ffd73c" stop-opacity="0.7254902"/>
      <stop offset="0.5333333333333333" stop-color="#ffdd5b" stop-opacity="0.6431373"/>
      <stop offset="1.0" stop-color="#ffffff" stop-opacity="0.0"/>
    </radialGradient>
  </defs>
</svg>
