<?xml version="1.0" encoding="UTF-8" standalone="no"?>
<svg xmlns:xlink="http://www.w3.org/1999/xlink" height="174.8px" width="315.45px" xmlns="http://www.w3.org/2000/svg">
  <g transform="matrix(1.0, 0.0, 0.0, 1.0, 23.55, -89.35)">
    <path d="M124.3 98.6 Q127.0 93.15 132.15 96.8 L132.15 103.05 Q129.45 106.75 125.05 104.45 L124.3 98.6 125.05 104.45 Q9.35 128.65 -15.7 260.85 L-23.05 260.85 Q1.05 128.6 124.3 98.6 M-17.5 259.5 Q7.55 127.3 123.25 103.1 7.55 127.3 -17.5 259.5" fill="#bcbcbc" fill-rule="evenodd" stroke="none"/>
    <path d="M125.05 104.45 Q129.45 106.75 132.15 103.05 L132.15 96.8 Q127.0 93.15 124.3 98.6 L125.05 104.45 Q9.35 128.65 -15.7 260.85 L-23.05 260.85 Q1.05 128.6 124.3 98.6" fill="none" stroke="#666666" stroke-linecap="round" stroke-linejoin="round" stroke-width="1.0"/>
    <path d="M123.25 103.1 Q7.55 127.3 -17.5 259.5" fill="none" stroke="#999999" stroke-linecap="round" stroke-linejoin="round" stroke-width="2.0"/>
    <path d="M142.2 93.1 L141.45 98.95 142.2 93.1 Q265.45 123.1 291.4 263.65 L284.95 263.65 Q257.15 123.15 141.45 98.95 137.05 101.25 134.35 97.55 L134.35 91.3 Q139.5 87.65 142.2 93.1 M286.75 261.85 Q258.95 121.35 143.25 97.15 258.95 121.35 286.75 261.85" fill="#bcbcbc" fill-rule="evenodd" stroke="none"/>
    <path d="M141.45 98.95 L142.2 93.1 Q139.5 87.65 134.35 91.3 L134.35 97.55 Q137.05 101.25 141.45 98.95 257.15 123.15 284.95 263.65 L291.4 263.65 Q265.45 123.1 142.2 93.1" fill="none" stroke="#666666" stroke-linecap="round" stroke-linejoin="round" stroke-width="1.0"/>
    <path d="M143.25 97.15 Q258.95 121.35 286.75 261.85" fill="none" stroke="#666666" stroke-linecap="round" stroke-linejoin="round" stroke-width="2.0"/>
  </g>
</svg>
